<svg xmlns="http://www.w3.org/2000/svg" viewBox="0 0 770.1 98.3" width="750">
	<title>Los Angeles Star</title>
	<g data-name="Layer 1">
	  <path d="M230.6 61.7a8.5 8.5 0 0 1-1 1.5c-3.5 4-7.2 7.9-10.6 12-1.4 1.7-2.3 1.9-4 .4a18 18 0 0 0-11-4.4 11.2 11.2 0 0 0-8.9 3.1 13.6 13.6 0 0 1-1.3 1 10 10 0 0 1 .1-2.5c2.5-6.1 6.3-11 12.8-12.9 1.8-.5 3.7-.2 5.5-.5a3.3 3.3 0 0 0 2.1-1.7c3.2-8.8 6.1-17.6 9.2-26.4a8 8 0 0 0-1.1-8c-3.7-4.8-11-8-17.5-5.1-5.4 2.3-8.4 10-6 15.9.9 2.4 2 4.8 4.3 6.2.5.3.7 1 1 1.5l-.5.6a38.3 38.3 0 0 1-4.3-3 20.3 20.3 0 0 1-1.1-29.4c6-6.5 17-8.3 24.2-5a28.1 28.1 0 0 1 8.4 6.3c1.2 1.2 1.9 1.3 3-.2a80.7 80.7 0 0 1 6.4-6.5c.4-.3 1.2-.7 1.5-.5a2.4 2.4 0 0 1 1 1.6L248 40c1 6.2 1.5 12.4 2.6 18.6.3 1.8 1.7 3.6 2.8 5.2 1 1.4 2 1 2.9 0a2.3 2.3 0 0 1 .6-.8l1.8-.8c0 .7 0 1.6-.3 2.1-3.1 4.3-6.3 8.6-9.6 12.7a2.8 2.8 0 0 1-2.6.3 63.8 63.8 0 0 1-6.1-4 6.7 6.7 0 0 1-3-4.8c-.7-5.6-1.7-11.1-2.4-16.7-.5-3.5-.6-3.6-4.1-3.5-3.3.1-6.5 0-9.8.2a2.9 2.9 0 0 0-2 1.5c-1.2 2.9-2.2 5.8-3.1 8.8a2 2 0 0 0 .8 1.6c2.5 1.5 5.1 2.8 7.6 4.4 1.2.9 2 .9 2.8-.4s2-2.1 2.8-3.2zm-.8-41.6h-.7a14.2 14.2 0 0 0-1.2 2.1L221.3 42c-.4 1.3 0 1.9 1.4 2h8.4c1.9.2 2.3-.6 2-2.3l-2.3-16.6-1-5zM617 13.4l-2.5-.2c-1.8-.2-3-1-3.2-3 0-1.7 0-3.3 2-4a3.8 3.8 0 0 1 4.7 2c1.7 4 .3 7.7-2 10.8a103.4 103.4 0 0 1-8.7 9l-5.5 5.2.2.8h14.7c1.5 0 2.2.7 2.2 2.3l-.2 25.6c0 2.2-.8 3.2-2.8 4.1-6.9 3-13.6 6.4-20.4 9.5a21.2 21.2 0 0 1-3.7 1.6 2.5 2.5 0 0 1-1.8-.8c-2.4-2.5-4.6-5.3-7.2-7.5a13.6 13.6 0 0 0-10.1-3c-2 .2-3.8.7-4.7 3.2a24 24 0 0 0 2.7.2 3 3 0 0 1 3.4 2.5 3.2 3.2 0 0 1-2 3.8 3.4 3.4 0 0 1-4.2-1 6.3 6.3 0 0 1-.4-8 111 111 0 0 1 8.8-10.2c2.9-3 6.1-5.9 9.2-8.8.2-.2.2-.5.4-1l-2.2-.3h-12c-1.5 0-2.1-.7-2.1-2.2l.1-22.3a3.4 3.4 0 0 1 2.2-3.3l24-11.7c2.8-1.4 3.1-1 5.4 2 2.8 3.8 6.3 6.7 11.2 7.2a3.9 3.9 0 0 0 4.5-2.5zm-13.7 57.3a11.3 11.3 0 0 0 .6-2.1l.3-26.8c0-1.2-.5-1.6-1.7-1.6h-6.9a4 4 0 0 0-2.3 1L575 59.1a8 8 0 0 0-.8 1.6c12.5-4.8 22.7-3.4 29.2 10zm8.3-49c-11.4 3.8-19.8 0-27-8.5a8.5 8.5 0 0 0-.5 2.8l-.2 19c0 6.1 0 4.6 4.9 5 2.5 0 4.8 0 6.8-2.2 4.8-4.8 9.9-9.3 14.8-14a11.4 11.4 0 0 0 1.2-2.1zM352.2 31.4a14.3 14.3 0 0 0-1.6 2 7.3 7.3 0 0 0-1.3 3v26.2a19 19 0 0 0 1.8 9.1c2.2 4.2 3.7 8.8 1.6 13.4a17.1 17.1 0 0 1-5 6.4 74.1 74.1 0 0 1-11.1 6.6 4.5 4.5 0 0 1-3.8-.5c-5.3-3.7-10.7-5.7-17-3l-1-.1c.9-1.3 1.5-2.5 2.3-3.5 3.2-4.1 6.4-8.3 9.7-12.3 1-1.2.8-1.8-.2-2.5-2.3-1.7-4.6-3.4-7-4.8-.5-.3-1.6 0-2.4.3a9.2 9.2 0 0 0-2 1.3l-.5-.6c.4-.4.6-1 1-1.3 1.9-1 2-2.7 2-4.6l-.3-23.5a5.3 5.3 0 0 1 2.1-4.8L333 27.8c3-2.3 3-2.3 6.4-.2l7.6 4.5c1.6 1 2.8 1.2 3.8-.7.1-.2.6-.4.8-.5zm-22.6 3.4l-.7.4v3.5c0 6.6.5 13.2 0 19.7-.2 4 .7 6.7 4.3 8.4 1 .4 2.5 1.3 3 .9a5.4 5.4 0 0 0 2-3.5c.2-7.4.1-14.8 0-22.2 0-.6-.1-1.5-.5-1.8-2.6-1.9-5.4-3.6-8.1-5.4zM338 68l-.6-.3-14.3 16.8.5.6a43.4 43.4 0 0 1 4.6-.7c5.9-.3 10.2 2.6 14 6.7a7 7 0 0 0 2 1c.4-.8 1-1.7 1-2.4a21.7 21.7 0 0 0-2-5.8c-2.7-4.5-5-9-4.9-14.4a8.2 8.2 0 0 0-.3-1.5zM.3 49c-1.1-3.4 1.5-8.2 4.8-9 1.7-.4 2.3-1 1.9-2.7-.2-.6 0-1.3 0-2-.4-1.1-.5-2.6-1.3-3.2a3.2 3.2 0 0 0-4.5.5 3.6 3.6 0 0 1-.9.5c-1-2.7 1-7.5 3.9-8.8 2.4-1 3.2-2.4 3.5-5 .6-5.8 4-10.2 8.4-13.8A23 23 0 0 1 30 0c6.6 0 13 .9 17.2 7a9.4 9.4 0 0 1 1.4 3.9 2.4 2.4 0 0 1-1.3 1.8c-3 1-6 1.8-9.1 2.7-1.6.4-2.2-.5-2.2-2a15.9 15.9 0 0 0-3.1-9.9 6 6 0 0 0-1.3-1.3c-1.4-1-2.3-.5-2.3 1.3 0 8.3.2 16.6.1 24.8 0 8.6 0 17-.2 25.6 0 1.6.4 2.2 1.8 2.7a28.7 28.7 0 0 1 6.1 2.9c1.5 1 2.4 1 3-.7a2.4 2.4 0 0 1 .7-1.1 6.7 6.7 0 0 1 1.7-.5c0 .5.1 1.2-.1 1.6-3.4 4.5-7 9-10.3 13.5-.9 1.2-1.7.9-2.4.1-4.7-5-10.7-5.7-17-5.3a16.4 16.4 0 0 0-9.4 3.3 8.5 8.5 0 0 1-1.4.8l-.4-.4a6.9 6.9 0 0 1 1-2c4.8-5.1 5-11.6 4.7-18 0-3.4-3-4.4-5.8-2.5L.3 49zm8.3 15.6l.2.3a3.5 3.5 0 0 0 .7-.3c5.5-3.7 10.6-8.1 17.6-8.8.3 0 .9-1 .9-1.4V34.9l.3-31.2a20.2 20.2 0 0 0-.5-2.8 26.5 26.5 0 0 0-2.8 2c-2.9 2.8-3.3 6.4-3.3 10 0 9.4.5 18.7.4 28a24.8 24.8 0 0 1-2.3 10.7c-1.9 3.6-5 6.6-7.7 9.8a34.3 34.3 0 0 1-3.5 3.2zM50 69c-.1-.6-.2-.7-.1-.8 4-2.8 2.8-7.1 2.8-11 0-6-.2-12-.5-17.9a5.2 5.2 0 0 1 2.6-5c4.6-3 9.1-6.3 13.6-9.5a3 3 0 0 1 3.7-.2l11.4 6.5c2 1 2.2 2.8 2.3 4.7l.1 20.8v.4c0 5.5 0 5.5-4.5 8.7-3.5 2.5-6.9 5-10.2 7.7-1.8 1.5-3.4 1.8-5.4.5-3.6-2.2-7.3-4.2-10.8-6.5-1.6-1.2-2.6-1-3.7.4a15.3 15.3 0 0 1-1.3 1.3zm24-3.4a16 16 0 0 0 .4-2.1c0-6.7-.2-13.4 0-20 0-3-.8-4.9-3.6-6a72 72 0 0 1-6.8-3.8V37c0 7 0 13.9.2 20.8 0 .7 0 1.7.5 2l9.4 5.7zM703.3 64.9a5.5 5.5 0 0 1-.5 2c-2.6 3.3-5.3 6.4-8 9.5-.9 1.2-1.8 1.3-2.8 0a9 9 0 0 0-1.9-1.6c-2.7-2-4.5-4.4-4-8a12.6 12.6 0 0 0-.3-2.7l-7.4 7.8-4.3 4.7c-.9 1-1.6 1.1-2.6.2-1.4-1.4-3.2-2.6-4.3-4.2a11.8 11.8 0 0 1-2.3-5.5c-.5-7.5-.5-15-.8-22.6a4.8 4.8 0 0 1 2.1-4.3c5.2-3.9 10.3-8 15.4-12 2.5-2 2.9-1.8 5.3.1l9 7.4c1 .9 1.8.7 2.7-.3a15 15 0 0 1 1.6-1.5l.6.5c-.3.5-.5 1.3-1 1.6-2.4 1.6-2.6 3.9-2.5 6.4l.2 20c0 .6-.2 1.4.1 2a22.4 22.4 0 0 0 2.6 2.6l1.8-1.8a4.6 4.6 0 0 1 .7-.5zm-27.2-30.5a19.6 19.6 0 0 0-.4 2.6l.5 25.4c0 2.6 2 3.8 3.7 5.1a1.5 1.5 0 0 0 1.4 0c1.8-2.2 5-3.5 4.8-7.2a142 142 0 0 1-.3-11.5c.1-3.6-.2-6.7-3.7-8.8-2-1.3-3.6-3.4-6-5.6zM122.7 41.8l2.5-3.9c-7.2 1.3-9.3 2-15.3-4.2l-.4.5v14.6c0 1.7.5 2.2 2.3 2.4 4.2.6 5.3-3 7.5-5.1a39.9 39.9 0 0 0 3.4-4.3l.5.4-2 3.7h11c2-.1 2.8.6 2.8 2.8 0 6 .2 12 0 18a3.3 3.3 0 0 1-1.6 2.5l-16 7c-1.3.5-2.3.7-3.4-.4-5.3-5.5-11.3-5.4-16.5 0a10.2 10.2 0 0 1-1.3.8c.3-1.3.2-2.1.6-2.7 1.8-2.6 3.3-5.6 5.7-7.5a21 21 0 0 1 9-3.7 10 10 0 0 1 8.4 2.7c1 1 2.2 2 3.7 3.1a13.4 13.4 0 0 0 .3-2l-.1-12.8a2 2 0 0 0-1.3-1.5 29.2 29.2 0 0 0-6.4-.2c-1 .1-1.9 1.1-2.6 2l-4.4 5.1c-.5.5-4.3 6.7-5.3 6.4l5.5-8.6h-5c-6 0-6 0-6-5.8l.1-14.6a3.4 3.4 0 0 1 1.6-2.3c5-2.9 10.2-5.6 15.4-8.2a3 3 0 0 1 2.7.4c4.2 3.5 8.6 4.1 13.4 1.7a10.2 10.2 0 0 1 2.4-.5 10.5 10.5 0 0 1-1 2.3l-6.2 8.8a46 46 0 0 1-3.4 3.5l-.6-.4zM506.4 30l-12.2 17.7a13.8 13.8 0 0 0 2 .3c2.9 0 5.8.2 8.8 0 1.9 0 2.5.8 2.6 2.5q.2 3.8.2 7.7c.1 3.5.2 7 .1 10.6a3.4 3.4 0 0 1-1.6 2.5c-5.3 2.6-10.8 5-16.2 7.5-1.2.5-2 .6-2.8-.7-3-5.1-13-4.8-16.2-.4a16.7 16.7 0 0 1-1.3 1.5l-.6-.4a7 7 0 0 1 .6-1.6l5.6-8a3.8 3.8 0 0 1 1.5-1.2l4.3-1.6c4.7-2 9-1.1 12.8 2.1l2.5 2.1a6.3 6.3 0 0 0 .5-1.4l-.1-13.3a2.3 2.3 0 0 0-1.6-1.5 33 33 0 0 0-6 0 3.5 3.5 0 0 0-2 1.2l-5.9 6.8c-.2.3-3.2 5.9-4 5.3l4.7-8c-2.9 0-5.5-.2-8.1 0-2 0-2.8-.4-2.7-2.6l-.3-16.6a3.4 3.4 0 0 1 2-3.6c4.7-2.6 9.3-5.4 14.1-8a3 3 0 0 1 3 .4c3.8 4.7 9.7 3.9 14 .8a9.8 9.8 0 0 1 1.5-.7zm-23.7 6.3l-.5.7c0 5.2.2 10.3.3 15.5a1.6 1.6 0 0 0 1 1.1c2.2.2 4.4.3 6-1.8l7.3-9.7c.4-.5.6-1 1.3-2.3-6.2 2-11.6 2.3-15.4-3.5zM422.8 67.8a15.8 15.8 0 0 1-1.1 2c-2 2.6-4 5-5.8 7.6a1.8 1.8 0 0 1-2.8.5c-1.9-1.3-3.7-2.5-5.4-3.9-1.2-1-2-1.4-3 .3-.2.4-.9.7-1.4 1l-.6-.6a29.6 29.6 0 0 0 2-2.8 6.3 6.3 0 0 0 1-2.9c-.2-16.9-.5-33.8-1-50.7-.1-2.8.4-4.8 2.8-6.3 2.1-1.2 4-2.7 6-4a10.2 10.2 0 0 1 1.9-.7 12.4 12.4 0 0 1 .3 1.8c.3 6 .5 11.9.6 17.9l.7 36.5c0 3.7 1.9 5.2 5.8 4.3zM632.8 73.9a15 15 0 0 0 1.7-2.5 9.3 9.3 0 0 0 1-3.6l-.3-26v-2c-.1-3.3-.1-3.4-3.5-3.8-1.1-.1-1.7-.6-1.3-1.7.7-2 .6-4.6 3.9-4.2a3 3 0 0 0 .6-1.7c0-3-.2-6-.3-8.9a3.8 3.8 0 0 1 2-3.6l6.5-4.5c.4-.3 1.2-.6 1.6-.4s.4 1 .5 1.5l.5 15c0 1.7.7 2.5 2.4 2.4a3.2 3.2 0 0 1 .8 0c1.3.3 3.3-1.1 3.5 1.4a3.8 3.8 0 0 1-4 4.3c-1.3 0-2.4 0-2.3 2l.4 25.4a4.9 4.9 0 0 0 3.6 4.4 2 2 0 0 0 1.4-.6 8.5 8.5 0 0 0 1-1.6l.6.2a6.3 6.3 0 0 1-.5 1.8l-6.9 10.3c-.7 1-1.4 1.4-2.5.5-1.8-1.5-3.8-2.8-5.5-4.4-1.4-1.4-2.4-1.9-3.5.2l-.8.5zM461 64.8a7.7 7.7 0 0 1-.9 1.8c-2.7 3.4-5.4 6.9-8.3 10.1a2.9 2.9 0 0 1-2.5.7c-4.8-2-9.5-4.1-14.1-6.4-2.1-1-3.6-.9-4.7 1.9l-.3-.7v-.7c3.6-2.9 2.8-6.9 2.8-10.7l-.5-20.3a3.8 3.8 0 0 1 2.2-4l14.6-7.6a5.3 5.3 0 0 0 .6-.3c2.8-2 2.8-2 4.7 1l4.8 6.6c1.8 2.6 1.6 3.3-1 5-4.4 3-8.7 5.8-13 9A4.4 4.4 0 0 0 444 53a47.6 47.6 0 0 0 .2 7.3 3 3 0 0 0 1.2 2.2c3.5 1.7 7 3.2 10.5 4.7a2.1 2.1 0 0 0 3-1l1.3-1.8zm-17.1-16l.6.4 5.7-3.9c1.3-.8 1.3-1.6.5-2.7l-4.3-6-2-2.9-.5.2zM740.1 66.4a15.2 15.2 0 0 1-1.4 2.1l-8.8 9.6c-1 1.1-1.7 1-2.8.2-3-2.2-6.3-4.3-9.3-6.7-1.8-1.5-3.3-2.2-5 .3l-.4-.5 1.5-1.8c.6-.9 1.5-1.8 1.5-2.7 0-5.5-.3-11-.5-16.4v-8a5.7 5.7 0 0 0-.4-2.3c-1-1.9-2-2-4-.9a16.8 16.8 0 0 1 1.3-3.5c1.4-2 3-3.8 4.6-5.7 1-1.2 2-1.6 3.4-.5a46.8 46.8 0 0 1 4.8 3.9c.8.9 1 2.3 1.4 3.5a10 10 0 0 1 .2 2l.6.2 1-1.5 5.7-8a2 2 0 0 1 3.4 0 6 6 0 0 0 6.3 2c1.5-.5 2.2.4 1.9 1.8-1.9 8.2-8.7 9.5-13.7 6.2-2.8-1.8-4.4-.8-4.5 2.6-.1 6.7-.2 13.3 0 20a3.1 3.1 0 0 0 1.2 2c2 1.5 4.1 2.8 6.1 4.2 1.2.9 2.1.8 3-.4a23.3 23.3 0 0 1 2.1-2.3zM393.2 65.5a18.7 18.7 0 0 1-1 1.7l-8.2 10a1.8 1.8 0 0 1-2.6.5l-14-6.2c-2.2-1-2.4-1-5 .7l1-1.9c.5-1.2 1.5-2.5 1.5-3.7 0-8.7-.1-17.4-.3-26a3.4 3.4 0 0 1 1.8-3.5c5.3-3 10.6-6.2 15.8-9.3 1.3-.7 2.5-.9 3.5.5l6.4 9.3c1.1 1.6.8 2.5-1 3.7-4.1 2.5-8 5.4-12 8.1a3.4 3.4 0 0 0-1 .7c-.8 1.1-3 .5-3.3 2.7-.7 3.6-.5 6.8 1.8 9.7a2.3 2.3 0 0 0 1 .7l10.3 4.3a2 2 0 0 0 2.8-.8 16.3 16.3 0 0 1 1.8-1.8zM376.4 34l-.7.3a134.6 134.6 0 0 0 .6 15.3l7.2-5.3zM284.4 37a11.7 11.7 0 0 1 1.2-1.8l7.8-7.7c1-1 1.8-1.1 2.8-.2 1.7 1.4 3.5 2.7 5 4.3s2.7 2.2 4.2.1a1.5 1.5 0 0 1 .5-.4l.7.1a10.3 10.3 0 0 1-1.3 1.6 6.2 6.2 0 0 0-2.3 5.4c.2 8 .2 15.8 0 23.7-.1 2.5.6 4 2.9 4.6 1.8.6 2 1.5 1 3l-5 7c-.8 1.2-1.7 1.4-3 .4a45.6 45.6 0 0 0-4.3-3.4c-2.4-1.5-3.3-3.5-3.2-6.4.2-9 0-17.8 0-26.7 0-1.7-2.4-4.8-3.9-4.8-.9 0-1.8 1-2.7 1.4l-3 4.6-.2-.4 2.8-4.5z" fill="#222"/>
	  <path d="M265.6 36.7a10.5 10.5 0 0 1 1-2.3c2-2.4 4-4.8 6.3-7.1a2.5 2.5 0 0 1 2.4-.2 15 15 0 0 1 4.2 3.5 9.8 9.8 0 0 1 2.1 5c.3 8.4.3 16.7.1 25 0 2.7 1.2 4.1 3 5.6 2.4 2.1 2.4 3.3.3 5.8a62.2 62.2 0 0 0-3.5 4.4c-1 1.3-1.8 1.4-3 .3-2-1.9-4.1-3.4-6-5.3-1.5-1.5-2.7-1.7-3.9.2a3 3 0 0 1-.7.7l-.5-.3c.3-.6.5-1.4 1-1.7 1.8-1.4 2.2-3.2 2.2-5.4-.2-8-.1-15.8-.2-23.7a7.1 7.1 0 0 0-1-3.5c-.7-1.1-1.8-2.1-3.3-.4zM770.1 72.3a7.3 7.3 0 0 1-.8 1.2l-5.4 5.2a1.9 1.9 0 0 1-3 0l-5.1-5.2c-1.2-1-1-2.1 0-3.2l5.3-5c.5-.4 1.9-.6 2.2-.3 2.2 2 4.2 4.1 6.3 6.2a5 5 0 0 1 .5 1z" fill="#222"/>
	</g>
</svg>
